<svg xmlns="http://www.w3.org/2000/svg" width="518.819" height="10.573" viewBox="0 0 518.819 10.573">
  <g id="Group_326" data-name="Group 326" transform="translate(-328.09 -554.213)">
    <line id="Line_177" data-name="Line 177" y1="10" x2="7" transform="translate(328.5 554.5)" fill="none" stroke="#707070" stroke-width="1"/>
    <line id="Line_178" data-name="Line 178" y1="10" x2="7" transform="translate(336.5 554.5)" fill="none" stroke="#707070" stroke-width="1"/>
    <line id="Line_179" data-name="Line 179" y1="10" x2="7" transform="translate(343.5 554.5)" fill="none" stroke="#707070" stroke-width="1"/>
    <line id="Line_180" data-name="Line 180" y1="10" x2="7" transform="translate(351.5 554.5)" fill="none" stroke="#707070" stroke-width="1"/>
    <line id="Line_181" data-name="Line 181" y1="10" x2="7" transform="translate(358.5 554.5)" fill="none" stroke="#707070" stroke-width="1"/>
    <line id="Line_182" data-name="Line 182" y1="10" x2="7" transform="translate(366.5 554.5)" fill="none" stroke="#707070" stroke-width="1"/>
    <line id="Line_183" data-name="Line 183" y1="10" x2="7" transform="translate(373.5 554.5)" fill="none" stroke="#707070" stroke-width="1"/>
    <line id="Line_184" data-name="Line 184" y1="10" x2="7" transform="translate(381.5 554.5)" fill="none" stroke="#707070" stroke-width="1"/>
    <line id="Line_185" data-name="Line 185" y1="10" x2="7" transform="translate(388.5 554.5)" fill="none" stroke="#707070" stroke-width="1"/>
    <line id="Line_186" data-name="Line 186" y1="10" x2="7" transform="translate(396.5 554.5)" fill="none" stroke="#707070" stroke-width="1"/>
    <line id="Line_187" data-name="Line 187" y1="10" x2="7" transform="translate(403.5 554.5)" fill="none" stroke="#707070" stroke-width="1"/>
    <line id="Line_188" data-name="Line 188" y1="10" x2="7" transform="translate(411.5 554.5)" fill="none" stroke="#707070" stroke-width="1"/>
    <line id="Line_189" data-name="Line 189" y1="10" x2="7" transform="translate(418.5 554.5)" fill="none" stroke="#707070" stroke-width="1"/>
    <line id="Line_190" data-name="Line 190" y1="10" x2="7" transform="translate(426.5 554.5)" fill="none" stroke="#707070" stroke-width="1"/>
    <line id="Line_191" data-name="Line 191" y1="10" x2="7" transform="translate(433.5 554.5)" fill="none" stroke="#707070" stroke-width="1"/>
    <line id="Line_192" data-name="Line 192" y1="10" x2="7" transform="translate(441.5 554.5)" fill="none" stroke="#707070" stroke-width="1"/>
    <line id="Line_193" data-name="Line 193" y1="10" x2="7" transform="translate(448.5 554.5)" fill="none" stroke="#707070" stroke-width="1"/>
    <line id="Line_194" data-name="Line 194" y1="10" x2="7" transform="translate(456.5 554.5)" fill="none" stroke="#707070" stroke-width="1"/>
    <line id="Line_195" data-name="Line 195" y1="10" x2="7" transform="translate(463.5 554.5)" fill="none" stroke="#707070" stroke-width="1"/>
    <line id="Line_196" data-name="Line 196" y1="10" x2="7" transform="translate(471.5 554.5)" fill="none" stroke="#707070" stroke-width="1"/>
    <line id="Line_197" data-name="Line 197" y1="10" x2="7" transform="translate(478.5 554.5)" fill="none" stroke="#707070" stroke-width="1"/>
    <line id="Line_198" data-name="Line 198" y1="10" x2="7" transform="translate(486.5 554.5)" fill="none" stroke="#707070" stroke-width="1"/>
    <line id="Line_199" data-name="Line 199" y1="10" x2="7" transform="translate(493.5 554.5)" fill="none" stroke="#707070" stroke-width="1"/>
    <line id="Line_200" data-name="Line 200" y1="10" x2="7" transform="translate(501.5 554.5)" fill="none" stroke="#707070" stroke-width="1"/>
    <line id="Line_201" data-name="Line 201" y1="10" x2="7" transform="translate(508.5 554.5)" fill="none" stroke="#707070" stroke-width="1"/>
    <line id="Line_202" data-name="Line 202" y1="10" x2="7" transform="translate(516.5 554.5)" fill="none" stroke="#707070" stroke-width="1"/>
    <line id="Line_203" data-name="Line 203" y1="10" x2="7" transform="translate(523.5 554.5)" fill="none" stroke="#707070" stroke-width="1"/>
    <line id="Line_204" data-name="Line 204" y1="10" x2="7" transform="translate(531.5 554.5)" fill="none" stroke="#707070" stroke-width="1"/>
    <line id="Line_205" data-name="Line 205" y1="10" x2="7" transform="translate(538.5 554.5)" fill="none" stroke="#707070" stroke-width="1"/>
    <line id="Line_206" data-name="Line 206" y1="10" x2="7" transform="translate(546.5 554.5)" fill="none" stroke="#707070" stroke-width="1"/>
    <line id="Line_235" data-name="Line 235" y1="10" x2="7" transform="translate(839.5 554.5)" fill="none" stroke="#707070" stroke-width="1"/>
    <line id="Line_207" data-name="Line 207" y1="10" x2="7" transform="translate(553.5 554.5)" fill="none" stroke="#707070" stroke-width="1"/>
    <line id="Line_208" data-name="Line 208" y1="10" x2="7" transform="translate(561.5 554.5)" fill="none" stroke="#707070" stroke-width="1"/>
    <line id="Line_209" data-name="Line 209" y1="10" x2="7" transform="translate(568.5 554.5)" fill="none" stroke="#707070" stroke-width="1"/>
    <line id="Line_210" data-name="Line 210" y1="10" x2="7" transform="translate(576.5 554.5)" fill="none" stroke="#707070" stroke-width="1"/>
    <line id="Line_211" data-name="Line 211" y1="10" x2="7" transform="translate(584.5 554.5)" fill="none" stroke="#707070" stroke-width="1"/>
    <line id="Line_212" data-name="Line 212" y1="10" x2="7" transform="translate(591.5 554.5)" fill="none" stroke="#707070" stroke-width="1"/>
    <line id="Line_213" data-name="Line 213" y1="10" x2="7" transform="translate(599.5 554.5)" fill="none" stroke="#707070" stroke-width="1"/>
    <line id="Line_214" data-name="Line 214" y1="10" x2="7" transform="translate(606.5 554.5)" fill="none" stroke="#707070" stroke-width="1"/>
    <line id="Line_215" data-name="Line 215" y1="10" x2="7" transform="translate(614.5 554.5)" fill="none" stroke="#707070" stroke-width="1"/>
    <line id="Line_216" data-name="Line 216" y1="10" x2="7" transform="translate(621.5 554.5)" fill="none" stroke="#707070" stroke-width="1"/>
    <line id="Line_217" data-name="Line 217" y1="10" x2="7" transform="translate(629.5 554.5)" fill="none" stroke="#707070" stroke-width="1"/>
    <line id="Line_218" data-name="Line 218" y1="10" x2="7" transform="translate(636.5 554.5)" fill="none" stroke="#707070" stroke-width="1"/>
    <line id="Line_219" data-name="Line 219" y1="10" x2="7" transform="translate(644.5 554.5)" fill="none" stroke="#707070" stroke-width="1"/>
    <line id="Line_220" data-name="Line 220" y1="10" x2="7" transform="translate(651.5 554.5)" fill="none" stroke="#707070" stroke-width="1"/>
    <line id="Line_221" data-name="Line 221" y1="10" x2="7" transform="translate(659.5 554.5)" fill="none" stroke="#707070" stroke-width="1"/>
    <line id="Line_222" data-name="Line 222" y1="10" x2="7" transform="translate(666.5 554.5)" fill="none" stroke="#707070" stroke-width="1"/>
    <line id="Line_223" data-name="Line 223" y1="10" x2="7" transform="translate(674.5 554.5)" fill="none" stroke="#707070" stroke-width="1"/>
    <line id="Line_224" data-name="Line 224" y1="10" x2="7" transform="translate(681.5 554.5)" fill="none" stroke="#707070" stroke-width="1"/>
    <line id="Line_225" data-name="Line 225" y1="10" x2="7" transform="translate(689.5 554.5)" fill="none" stroke="#707070" stroke-width="1"/>
    <line id="Line_226" data-name="Line 226" y1="10" x2="7" transform="translate(696.5 554.5)" fill="none" stroke="#707070" stroke-width="1"/>
    <line id="Line_227" data-name="Line 227" y1="10" x2="7" transform="translate(704.5 554.5)" fill="none" stroke="#707070" stroke-width="1"/>
    <line id="Line_228" data-name="Line 228" y1="10" x2="7" transform="translate(711.5 554.5)" fill="none" stroke="#707070" stroke-width="1"/>
    <line id="Line_229" data-name="Line 229" y1="10" x2="7" transform="translate(719.5 554.5)" fill="none" stroke="#707070" stroke-width="1"/>
    <line id="Line_230" data-name="Line 230" y1="10" x2="7" transform="translate(726.5 554.5)" fill="none" stroke="#707070" stroke-width="1"/>
    <line id="Line_231" data-name="Line 231" y1="10" x2="7" transform="translate(734.5 554.5)" fill="none" stroke="#707070" stroke-width="1"/>
    <line id="Line_232" data-name="Line 232" y1="10" x2="7" transform="translate(741.5 554.5)" fill="none" stroke="#707070" stroke-width="1"/>
    <line id="Line_233" data-name="Line 233" y1="10" x2="7" transform="translate(749.5 554.5)" fill="none" stroke="#707070" stroke-width="1"/>
    <line id="Line_234" data-name="Line 234" y1="10" x2="7" transform="translate(756.5 554.5)" fill="none" stroke="#707070" stroke-width="1"/>
    <line id="Line_236" data-name="Line 236" y1="10" x2="7" transform="translate(764.5 554.5)" fill="none" stroke="#707070" stroke-width="1"/>
    <line id="Line_237" data-name="Line 237" y1="10" x2="7" transform="translate(771.5 554.5)" fill="none" stroke="#707070" stroke-width="1"/>
    <line id="Line_238" data-name="Line 238" y1="10" x2="7" transform="translate(779.5 554.5)" fill="none" stroke="#707070" stroke-width="1"/>
    <line id="Line_239" data-name="Line 239" y1="10" x2="7" transform="translate(786.5 554.5)" fill="none" stroke="#707070" stroke-width="1"/>
    <line id="Line_240" data-name="Line 240" y1="10" x2="7" transform="translate(794.5 554.5)" fill="none" stroke="#707070" stroke-width="1"/>
    <line id="Line_241" data-name="Line 241" y1="10" x2="7" transform="translate(801.5 554.5)" fill="none" stroke="#707070" stroke-width="1"/>
    <line id="Line_242" data-name="Line 242" y1="10" x2="7" transform="translate(809.5 554.5)" fill="none" stroke="#707070" stroke-width="1"/>
    <line id="Line_243" data-name="Line 243" y1="10" x2="7" transform="translate(816.5 554.5)" fill="none" stroke="#707070" stroke-width="1"/>
    <line id="Line_244" data-name="Line 244" y1="10" x2="7" transform="translate(824.5 554.5)" fill="none" stroke="#707070" stroke-width="1"/>
    <line id="Line_245" data-name="Line 245" y1="10" x2="7" transform="translate(831.5 554.5)" fill="none" stroke="#707070" stroke-width="1"/>
  </g>
</svg>
