<svg xmlns="http://www.w3.org/2000/svg" viewBox="0 0 17.357 21.208"><path id="thumbs-up-solid" d="M17.388,30.175c-1.242-.153-2.483.06-3.735-.023a21.774,21.774,0,0,1-2.916-.1A6.66,6.66,0,0,1,8.463,29.04c-.377-.246-.679-.591-1.065-.809a1.654,1.654,0,0,0-1.191-.26c-.884.177-1.363-.409-1.4-1.321-.042-1.153.1-2.3.033-3.455-.051-.921-.033-1.846-.042-2.767A1.263,1.263,0,0,1,6.24,19.176a1.248,1.248,0,0,0,.986-.326c.939-.763,1.818-1.581,2.711-2.4a9.95,9.95,0,0,0,2.321-2.93,7.7,7.7,0,0,0,.87-2.432c.163-1.349,1-1.363,2.2-.693,1.125.632,1.256,1.823,1.056,3.023a6.884,6.884,0,0,1-1.3,3.028,7.752,7.752,0,0,0-.5.981c-.177.33.079.47.34.474.879.019,1.767-.037,2.632.028.939.07,1.963-.27,2.832.46a1.921,1.921,0,0,1,.349,2.288,2.567,2.567,0,0,1-.3.367c-.288.242-.377.456.033.646a.607.607,0,0,1,.3.474,2.276,2.276,0,0,1-.581,2.265c-.237.228-.209.372-.042.623a1.722,1.722,0,0,1-.219,2.065c-.2.135-.233.442-.516.5-.112.023-.079.135-.047.219a1.467,1.467,0,0,1-.181,1.739,1.812,1.812,0,0,1-1.628.586C17.494,30.171,17.443,30.175,17.388,30.175Z" transform="translate(-4.298 -9.467)" fill="#fff" stroke="#707070" stroke-width="1"/>
</svg>